<?xml version="1.0" encoding="utf-8"?>
<!-- Generator: Adobe Illustrator 24.2.1, SVG Export Plug-In . SVG Version: 6.00 Build 0)  -->
<svg version="1.1" id="Capa_1" xmlns="http://www.w3.org/2000/svg" xmlns:xlink="http://www.w3.org/1999/xlink" x="0px" y="0px"
	 viewBox="0 0 350.15 305.01" style="enable-background:new 0 0 350.15 305.01;" xml:space="preserve">
<style type="text/css">
	.st0{fill:#D80F0F;}
	.st1{fill:#777777;}
	.st2{fill:#E58903;}
	.st3{fill:#006EDB;}
	.st4{fill:#06932B;}
	.st5{fill:#5D18C9;}
	.st6{fill:#E0FC3F;}
</style>
<path d="M7.76,289.39L169.53,9.21c2.47-4.27,8.64-4.27,11.1,0l161.76,280.18c2.47,4.27-0.62,9.62-5.55,9.62H13.31
	C8.38,299,5.29,293.66,7.76,289.39z"/>
<path class="st0" d="M160.99,293h-60.92c-2.9,0-3.93-3.84-1.42-5.29l38.63-22.29c1.11-0.64,2.51-0.46,3.42,0.45l22.29,22.29
	C164.78,289.95,163.51,293,160.99,293z"/>
<path class="st0" d="M250.1,293h-60.94c-2.53,0-3.79-3.05-2-4.84l22.3-22.3c0.91-0.91,2.31-1.09,3.42-0.45l38.63,22.3
	C254.03,289.16,253,293,250.1,293z"/>
<path class="st1" d="M136.64,88.76v44.6c0,1.28-0.86,2.41-2.1,2.74l-30.46,8.15c-2.44,0.65-4.45-1.97-3.19-4.16l30.46-52.75
	C132.8,84.83,136.64,85.86,136.64,88.76z"/>
<path class="st1" d="M100.72,197.74v0.01L60.2,221.15c-2.51,1.45-5.32-1.36-3.87-3.87L86.8,164.5c1.26-2.19,4.54-1.76,5.19,0.68
	L100.72,197.74z"/>
<path class="st2" d="M289.96,221.14l-38.63-22.31c-1.11-0.64-1.65-1.95-1.32-3.19l8.17-30.46c0.65-2.44,3.93-2.87,5.19-0.68
	l30.47,52.77C295.28,219.78,292.47,222.59,289.96,221.14z"/>
<path class="st2" d="M246.09,144.26l-30.48-8.17c-1.24-0.33-2.1-1.46-2.1-2.74V88.74c0-2.9,3.84-3.93,5.29-1.42l30.48,52.78
	C250.54,142.29,248.53,144.92,246.09,144.26z"/>
<path class="st4" d="M200.4,63.96h-50.65c-2.18,0-3.55-2.36-2.45-4.25l25.33-43.87c1.09-1.89,3.82-1.89,4.91,0l25.32,43.87
	C203.95,61.6,202.58,63.96,200.4,63.96z"/>
<path class="st6" d="M68.16,293H17.51c-2.18,0-3.55-2.36-2.45-4.25l25.33-43.87c1.09-1.89,3.82-1.89,4.91,0l25.32,43.87
	C71.71,290.64,70.34,293,68.16,293z"/>
<path class="st6" d="M332.64,293h-50.65c-2.18,0-3.55-2.36-2.45-4.25l25.32-43.87c1.09-1.89,3.82-1.89,4.91,0l25.33,43.87
	C336.19,290.64,334.82,293,332.64,293z"/>
<path class="st0" d="M168.83,104.41l-21.34,21.34c-1.79,1.79-4.84,0.52-4.84-2V81.07c0-2.53,3.05-3.79,4.84-2l21.34,21.34
	C169.93,101.51,169.93,103.3,168.83,104.41z"/>
<path class="st4" d="M198.42,74.8l-21.34,21.35c-1.11,1.11-2.9,1.11-4.01,0L151.73,74.8c-1.79-1.79-0.52-4.84,2-4.84h42.68
	C198.94,69.96,200.21,73.02,198.42,74.8z"/>
<path class="st1" d="M207.5,81.06v42.68c0,2.53-3.05,3.79-4.84,2l-21.34-21.34c-1.11-1.11-1.11-2.9,0-4.01l21.34-21.34
	C204.45,77.27,207.5,78.53,207.5,81.06z"/>
<path class="st6" d="M196.42,134.83h-42.68c-2.53,0-3.79-3.05-2-4.84l21.34-21.34c1.11-1.11,2.9-1.11,4.01,0L198.42,130
	C200.21,131.78,198.94,134.83,196.42,134.83z"/>
<path class="st2" d="M260.29,241.18l-7.81-29.15c-0.65-2.44,1.97-4.45,4.16-3.19l36.96,21.34c2.19,1.26,1.76,4.54-0.68,5.19
	l-29.15,7.81C262.25,243.59,260.7,242.69,260.29,241.18z"/>
<path class="st6" d="M271.13,281.62l-7.82-29.15c-0.41-1.51,0.49-3.07,2-3.47l29.16-7.81c2.44-0.65,4.45,1.97,3.19,4.16
	l-21.34,36.97C275.06,284.49,271.79,284.06,271.13,281.62z"/>
<path class="st1" d="M261.18,286.35l-36.96-21.34c-2.19-1.26-1.76-4.54,0.68-5.19l29.15-7.81c1.51-0.41,3.07,0.49,3.47,2l7.82,29.15
	C265.99,285.6,263.37,287.61,261.18,286.35z"/>
<path class="st3" d="M220.15,249.86l21.34-36.96c1.26-2.19,4.54-1.76,5.19,0.68l7.81,29.15c0.4,1.51-0.49,3.07-2,3.47l-29.15,7.81
	C220.9,254.67,218.89,252.05,220.15,249.86z"/>
<path class="st0" d="M96.11,252.01l29.15,7.81c2.44,0.65,2.87,3.93,0.68,5.19l-36.96,21.34c-2.19,1.26-4.81-0.75-4.16-3.19
	l7.81-29.15C93.04,252.5,94.6,251.6,96.11,252.01z"/>
<path class="st6" d="M55.67,241.18l29.16,7.81c1.51,0.4,2.41,1.96,2,3.47l-7.81,29.16c-0.65,2.44-3.93,2.87-5.19,0.68l-21.34-36.97
	C51.22,243.15,53.23,240.53,55.67,241.18z"/>
<path class="st2" d="M56.55,230.19l36.96-21.34c2.19-1.26,4.81,0.75,4.16,3.19l-7.81,29.15c-0.41,1.51-1.96,2.41-3.47,2l-29.15-7.81
	C54.8,234.73,54.37,231.45,56.55,230.19z"/>
<path class="st5" d="M108.67,212.9l21.34,36.96c1.26,2.19-0.75,4.81-3.19,4.16l-29.15-7.82c-1.51-0.41-2.41-1.96-2-3.47l7.81-29.15
	C104.13,211.15,107.4,210.71,108.67,212.9z"/>
<path class="st6" d="M202.86,145.09l-25.32,43.87c-1.09,1.89-3.82,1.89-4.91,0l-25.33-43.87c-1.09-1.89,0.27-4.25,2.45-4.25h50.65
	C202.58,140.83,203.95,143.2,202.86,145.09z"/>
<path class="st3" d="M238.29,206.46l-25.32,43.86c-1.09,1.89-3.82,1.89-4.91,0l-24.59-42.59l-0.73-1.27
	c-1.09-1.89,0.27-4.25,2.45-4.25h50.65C238.01,202.2,239.38,204.57,238.29,206.46z"/>
<path class="st5" d="M167.42,206.46l-25.33,43.87c-1.09,1.89-3.82,1.89-4.91,0l-25.32-43.87c-1.09-1.89,0.27-4.25,2.45-4.25h50.65
	C167.15,202.2,168.52,204.57,167.42,206.46z"/>
<path class="st6" d="M200.4,257.57h-50.65c-2.18,0-3.55-2.36-2.45-4.25l25.33-43.87c1.09-1.89,3.82-1.89,4.91,0l25.32,43.87
	C203.95,255.21,202.58,257.57,200.4,257.57z"/>
<path class="st6" d="M164.97,196.2h-50.66c-2.18,0-3.55-2.36-2.45-4.25l25.33-43.87c1.09-1.89,3.82-1.89,4.91,0l25.33,43.87
	C168.52,193.84,167.15,196.2,164.97,196.2z"/>
<path class="st6" d="M235.84,196.2h-50.66c-2.18,0-3.55-2.36-2.45-4.25l25.33-43.87c1.09-1.89,3.82-1.89,4.91,0l25.33,43.87
	C239.39,193.84,238.02,196.2,235.84,196.2z"/>
<path class="st1" d="M130,148.53l-21.34,36.97c-1.26,2.19-4.54,1.76-5.19-0.68l-7.81-29.16c-0.41-1.51,0.49-3.07,2-3.47l29.15-7.81
	C129.25,143.72,131.26,146.34,130,148.53z"/>
<path class="st2" d="M241.5,185.5l-21.35-36.96c-1.26-2.19,0.75-4.81,3.19-4.16l29.16,7.81c1.51,0.41,2.41,1.96,2,3.47l-7.82,29.15
	C246.04,187.25,242.76,187.68,241.5,185.5z"/>
<path class="st0" d="M153.73,263.57l42.68,0c2.53,0,3.79,3.05,2,4.84l-21.35,21.35c-1.11,1.11-2.9,1.11-4.01,0l-21.34-21.34
	C149.94,266.63,151.21,263.57,153.73,263.57z"/>
</svg>
